<svg id="Capa_1" enable-background="new 0 0 512 512" height="512" viewBox="0 0 512 512" width="512" xmlns="http://www.w3.org/2000/svg"><g><path d="m180.667 361.333h150.667v150.667h-150.667z"/><path d="m150.667 150.667v-150.667h-135.667c-8.284 0-15 6.716-15 15v135.667z"/><path d="m361.333 180.667h150.667v150.667h-150.667z"/><g><path d="m180.667 0v150.667h150.667v-150.667zm75.333 120.333c-24.813 0-45-20.187-45-45s20.187-45 45-45 45 20.187 45 45-20.187 45-45 45z"/><circle cx="256" cy="75.333" r="15"/></g><g><circle cx="436.667" cy="436.667" r="15"/><path d="m361.333 361.333v150.667h135.667c8.284 0 15-6.716 15-15v-135.667zm75.334 120.334c-24.813 0-45-20.187-45-45s20.187-45 45-45 45 20.187 45 45-20.187 45-45 45z"/></g><g><circle cx="75.333" cy="256" r="15"/><path d="m0 180.667v150.667h150.667v-150.667zm75.333 120.333c-24.813 0-45-20.187-45-45s20.187-45 45-45 45 20.187 45 45-20.186 45-45 45z"/></g><path d="m497 0h-135.667v150.667h150.667v-135.667c0-8.284-6.716-15-15-15zm-28.514 85.94c5.858 5.858 5.858 15.355 0 21.213-2.929 2.928-6.769 4.393-10.606 4.393-3.839 0-7.678-1.464-10.606-4.394l-10.606-10.607-10.606 10.607c-2.929 2.929-6.768 4.394-10.606 4.394s-7.678-1.464-10.606-4.393c-5.858-5.858-5.858-15.355 0-21.213l10.607-10.607-10.607-10.607c-5.858-5.858-5.858-15.355 0-21.213 5.858-5.857 15.356-5.857 21.213 0l10.606 10.607 10.606-10.607c5.857-5.858 15.355-5.858 21.213 0s5.858 15.355 0 21.213l-10.607 10.607z"/><path d="m0 361.333v135.667c0 8.284 6.716 15 15 15h135.667v-150.667zm107.153 85.941c5.858 5.858 5.858 15.355 0 21.213-2.929 2.928-6.769 4.393-10.606 4.393-3.839 0-7.678-1.464-10.606-4.394l-10.608-10.606-10.606 10.607c-2.929 2.929-6.768 4.394-10.606 4.394s-7.678-1.464-10.606-4.393c-5.858-5.858-5.858-15.355 0-21.213l10.607-10.607-10.608-10.608c-5.858-5.858-5.858-15.355 0-21.213 5.858-5.857 15.356-5.857 21.213 0l10.606 10.607 10.606-10.607c5.857-5.858 15.355-5.858 21.213 0s5.858 15.355 0 21.213l-10.607 10.607z"/><path d="m180.667 180.667v150.667h150.667v-150.667zm107.152 85.94c5.858 5.858 5.858 15.355 0 21.213-2.929 2.928-6.769 4.393-10.606 4.393-3.839 0-7.678-1.464-10.606-4.394l-10.607-10.606-10.606 10.607c-2.929 2.929-6.768 4.394-10.606 4.394s-7.678-1.464-10.606-4.393c-5.858-5.858-5.858-15.355 0-21.213l10.605-10.608-10.607-10.607c-5.858-5.858-5.858-15.355 0-21.213 5.858-5.857 15.356-5.857 21.213 0l10.607 10.607 10.606-10.607c5.857-5.858 15.355-5.858 21.213 0s5.858 15.355 0 21.213l-10.606 10.607z"/></g></svg>